<svg width="200" height="29" viewBox="0 0 200 29" fill="none" xmlns="http://www.w3.org/2000/svg">
<path d="M52.86 25.28C51.8147 25.28 50.9093 25.2333 50.144 25.14C49.3973 25.0653 48.6693 24.9253 47.96 24.72V5.68C48.6693 5.47467 49.3973 5.33467 50.144 5.26C50.9093 5.16667 51.8147 5.12 52.86 5.12C54.4093 5.12 55.7067 5.43733 56.752 6.072C57.816 6.70667 58.6187 7.76133 59.16 9.236C59.72 10.692 60 12.68 60 15.2C60 17.72 59.72 19.7173 59.16 21.192C58.6187 22.6667 57.816 23.7213 56.752 24.356C55.7067 24.972 54.4093 25.28 52.86 25.28ZM51.32 23.18H52.86C53.6067 23.18 54.26 22.956 54.82 22.508C55.3987 22.0413 55.8467 21.2293 56.164 20.072C56.4813 18.9147 56.64 17.2907 56.64 15.2C56.64 13.0907 56.4813 11.4667 56.164 10.328C55.8467 9.17067 55.3987 8.368 54.82 7.92C54.26 7.45333 53.6067 7.22 52.86 7.22H51.32V23.18ZM66.7178 25.28C65.9338 25.28 65.2058 25.1587 64.5338 24.916C63.8805 24.6733 63.3578 24.2347 62.9658 23.6C62.5738 22.9467 62.3778 22.0133 62.3778 20.8C62.3778 19.5867 62.5738 18.6627 62.9658 18.028C63.3765 17.3747 63.9271 16.9267 64.6178 16.684C65.3271 16.4413 66.1205 16.32 66.9978 16.32C67.4271 16.32 67.8378 16.348 68.2298 16.404C68.6405 16.46 69.0231 16.5253 69.3778 16.6V15.48C69.3778 14.36 69.1165 13.6133 68.5938 13.24C68.0711 12.8667 67.3525 12.68 66.4378 12.68H63.6378V11.28C64.0671 11.1307 64.5898 11 65.2058 10.888C65.8405 10.776 66.4378 10.72 66.9978 10.72C68.2671 10.72 69.3218 10.8507 70.1618 11.112C71.0205 11.3547 71.6645 11.8213 72.0938 12.512C72.5231 13.184 72.7378 14.1733 72.7378 15.48V25H70.3578L69.9378 24.16H69.7978C69.4991 24.44 69.0978 24.7013 68.5938 24.944C68.1085 25.168 67.4831 25.28 66.7178 25.28ZM67.8378 23.32C68.1925 23.32 68.5005 23.264 68.7618 23.152C69.0418 23.0213 69.2471 22.8907 69.3778 22.76V18.28H67.8378C67.5205 18.28 67.1938 18.3547 66.8578 18.504C66.5405 18.6533 66.2698 18.9147 66.0458 19.288C65.8405 19.6427 65.7378 20.1467 65.7378 20.8C65.7378 21.4533 65.8405 21.9667 66.0458 22.34C66.2698 22.6947 66.5405 22.9467 66.8578 23.096C67.1938 23.2453 67.5205 23.32 67.8378 23.32ZM80.9869 25.28C80.2029 25.28 79.4749 25.1587 78.8029 24.916C78.1495 24.6547 77.6269 24.188 77.2349 23.516C76.8429 22.8253 76.6469 21.8267 76.6469 20.52V13.38H75.1069V11.28H76.6469V7.92H80.0069V11.28H83.7869V12.82C83.3762 12.9507 82.8442 13.0813 82.1909 13.212C81.5375 13.324 80.8562 13.38 80.1469 13.38H80.0069V20.52C80.0069 21.2667 80.1002 21.8453 80.2869 22.256C80.4735 22.648 80.7069 22.928 80.9869 23.096C81.2669 23.2453 81.5469 23.32 81.8269 23.32H84.3469V24.72C84.1229 24.8133 83.8149 24.9067 83.4229 25C83.0309 25.0747 82.6202 25.14 82.1909 25.196C81.7615 25.252 81.3602 25.28 80.9869 25.28ZM89.96 25.28C89.176 25.28 88.448 25.1587 87.776 24.916C87.1227 24.6733 86.6 24.2347 86.208 23.6C85.816 22.9467 85.62 22.0133 85.62 20.8C85.62 19.5867 85.816 18.6627 86.208 18.028C86.6187 17.3747 87.1693 16.9267 87.86 16.684C88.5693 16.4413 89.3627 16.32 90.24 16.32C90.6693 16.32 91.08 16.348 91.472 16.404C91.8827 16.46 92.2653 16.5253 92.62 16.6V15.48C92.62 14.36 92.3587 13.6133 91.836 13.24C91.3133 12.8667 90.5947 12.68 89.68 12.68H86.88V11.28C87.3093 11.1307 87.832 11 88.448 10.888C89.0827 10.776 89.68 10.72 90.24 10.72C91.5093 10.72 92.564 10.8507 93.404 11.112C94.2627 11.3547 94.9067 11.8213 95.336 12.512C95.7653 13.184 95.98 14.1733 95.98 15.48V25H93.6L93.18 24.16H93.04C92.7413 24.44 92.34 24.7013 91.836 24.944C91.3507 25.168 90.7253 25.28 89.96 25.28ZM91.08 23.32C91.4347 23.32 91.7427 23.264 92.004 23.152C92.284 23.0213 92.4893 22.8907 92.62 22.76V18.28H91.08C90.7627 18.28 90.436 18.3547 90.1 18.504C89.7827 18.6533 89.512 18.9147 89.288 19.288C89.0827 19.6427 88.98 20.1467 88.98 20.8C88.98 21.4533 89.0827 21.9667 89.288 22.34C89.512 22.6947 89.7827 22.9467 90.1 23.096C90.436 23.2453 90.7627 23.32 91.08 23.32ZM104.369 25.28C103.398 25.28 102.558 25.2053 101.849 25.056C101.158 24.9253 100.458 24.72 99.7491 24.44V5.4H103.109V11.42C103.408 11.2147 103.753 11.0467 104.145 10.916C104.556 10.7853 105.004 10.72 105.489 10.72C106.516 10.72 107.402 10.9627 108.149 11.448C108.914 11.9147 109.502 12.68 109.913 13.744C110.324 14.808 110.529 16.2267 110.529 18C110.529 19.7733 110.305 21.192 109.857 22.256C109.428 23.32 108.756 24.0947 107.841 24.58C106.926 25.0467 105.769 25.28 104.369 25.28ZM103.109 23.32H104.369C104.929 23.32 105.414 23.1707 105.825 22.872C106.254 22.5547 106.581 22.0133 106.805 21.248C107.048 20.4827 107.169 19.4 107.169 18C107.169 16.6 107.057 15.5173 106.833 14.752C106.609 13.968 106.301 13.4267 105.909 13.128C105.536 12.8293 105.116 12.68 104.649 12.68C104.294 12.68 103.986 12.736 103.725 12.848C103.464 12.96 103.258 13.0907 103.109 13.24V23.32ZM117.112 25.28C116.328 25.28 115.6 25.1587 114.928 24.916C114.275 24.6733 113.752 24.2347 113.36 23.6C112.968 22.9467 112.772 22.0133 112.772 20.8C112.772 19.5867 112.968 18.6627 113.36 18.028C113.771 17.3747 114.322 16.9267 115.012 16.684C115.722 16.4413 116.515 16.32 117.392 16.32C117.822 16.32 118.232 16.348 118.624 16.404C119.035 16.46 119.418 16.5253 119.772 16.6V15.48C119.772 14.36 119.511 13.6133 118.988 13.24C118.466 12.8667 117.747 12.68 116.832 12.68H114.032V11.28C114.462 11.1307 114.984 11 115.6 10.888C116.235 10.776 116.832 10.72 117.392 10.72C118.662 10.72 119.716 10.8507 120.556 11.112C121.415 11.3547 122.059 11.8213 122.488 12.512C122.918 13.184 123.132 14.1733 123.132 15.48V25H120.752L120.332 24.16H120.192C119.894 24.44 119.492 24.7013 118.988 24.944C118.503 25.168 117.878 25.28 117.112 25.28ZM118.232 23.32C118.587 23.32 118.895 23.264 119.156 23.152C119.436 23.0213 119.642 22.8907 119.772 22.76V18.28H118.232C117.915 18.28 117.588 18.3547 117.252 18.504C116.935 18.6533 116.664 18.9147 116.44 19.288C116.235 19.6427 116.132 20.1467 116.132 20.8C116.132 21.4533 116.235 21.9667 116.44 22.34C116.664 22.6947 116.935 22.9467 117.252 23.096C117.588 23.2453 117.915 23.32 118.232 23.32ZM129.701 25.28C129.011 25.28 128.339 25.2147 127.685 25.084C127.032 24.972 126.491 24.8507 126.061 24.72V23.32H129.141C130.187 23.32 130.98 23.1707 131.521 22.872C132.081 22.5547 132.361 22.0507 132.361 21.36C132.361 20.8747 132.203 20.4827 131.885 20.184C131.568 19.8667 131.157 19.596 130.653 19.372C130.168 19.148 129.636 18.924 129.057 18.7C128.497 18.4573 127.965 18.1773 127.461 17.86C126.976 17.524 126.575 17.104 126.257 16.6C125.94 16.0773 125.781 15.424 125.781 14.64C125.781 13.0907 126.248 12.0547 127.181 11.532C128.133 10.9907 129.487 10.72 131.241 10.72C131.951 10.72 132.632 10.776 133.285 10.888C133.939 11 134.471 11.1307 134.881 11.28V12.68H131.801C131.036 12.68 130.401 12.82 129.897 13.1C129.393 13.38 129.141 13.8 129.141 14.36C129.141 14.8453 129.3 15.2467 129.617 15.564C129.935 15.8627 130.336 16.124 130.821 16.348C131.325 16.572 131.857 16.8053 132.417 17.048C132.996 17.272 133.528 17.552 134.013 17.888C134.517 18.2053 134.928 18.616 135.245 19.12C135.563 19.624 135.721 20.2773 135.721 21.08C135.721 22.2 135.497 23.068 135.049 23.684C134.62 24.2813 133.957 24.7013 133.061 24.944C132.184 25.168 131.064 25.28 129.701 25.28ZM143.983 25.28C142.545 25.28 141.36 25.0467 140.427 24.58C139.493 24.0947 138.803 23.32 138.355 22.256C137.907 21.192 137.683 19.7733 137.683 18C137.683 16.2267 137.888 14.808 138.299 13.744C138.728 12.68 139.335 11.9147 140.119 11.448C140.921 10.9627 141.883 10.72 143.003 10.72C144.123 10.72 145.075 10.9627 145.859 11.448C146.661 11.9147 147.268 12.68 147.679 13.744C148.108 14.808 148.323 16.2267 148.323 18V18.98H141.043C141.043 20.5853 141.323 21.7147 141.883 22.368C142.461 23.0027 143.348 23.32 144.543 23.32H147.623V24.72C147.212 24.8507 146.68 24.972 146.027 25.084C145.373 25.2147 144.692 25.28 143.983 25.28ZM141.043 17.02H144.963C144.963 15.8067 144.879 14.8827 144.711 14.248C144.543 13.5947 144.309 13.1467 144.011 12.904C143.712 12.6613 143.376 12.54 143.003 12.54C142.629 12.54 142.293 12.6613 141.995 12.904C141.696 13.1467 141.463 13.5947 141.295 14.248C141.127 14.8827 141.043 15.8067 141.043 17.02ZM158.401 25V5.4H161.761V22.76H168.621V25H158.401ZM174.37 25.28C173.586 25.28 172.858 25.1587 172.186 24.916C171.533 24.6733 171.01 24.2347 170.618 23.6C170.226 22.9467 170.03 22.0133 170.03 20.8C170.03 19.5867 170.226 18.6627 170.618 18.028C171.029 17.3747 171.579 16.9267 172.27 16.684C172.979 16.4413 173.773 16.32 174.65 16.32C175.079 16.32 175.49 16.348 175.882 16.404C176.293 16.46 176.675 16.5253 177.03 16.6V15.48C177.03 14.36 176.769 13.6133 176.246 13.24C175.723 12.8667 175.005 12.68 174.09 12.68H171.29V11.28C171.719 11.1307 172.242 11 172.858 10.888C173.493 10.776 174.09 10.72 174.65 10.72C175.919 10.72 176.974 10.8507 177.814 11.112C178.673 11.3547 179.317 11.8213 179.746 12.512C180.175 13.184 180.39 14.1733 180.39 15.48V25H178.01L177.59 24.16H177.45C177.151 24.44 176.75 24.7013 176.246 24.944C175.761 25.168 175.135 25.28 174.37 25.28ZM175.49 23.32C175.845 23.32 176.153 23.264 176.414 23.152C176.694 23.0213 176.899 22.8907 177.03 22.76V18.28H175.49C175.173 18.28 174.846 18.3547 174.51 18.504C174.193 18.6533 173.922 18.9147 173.698 19.288C173.493 19.6427 173.39 20.1467 173.39 20.8C173.39 21.4533 173.493 21.9667 173.698 22.34C173.922 22.6947 174.193 22.9467 174.51 23.096C174.846 23.2453 175.173 23.32 175.49 23.32ZM188.779 25.28C187.809 25.28 186.969 25.2053 186.259 25.056C185.569 24.9253 184.869 24.72 184.159 24.44V5.4H187.519V11.42C187.818 11.2147 188.163 11.0467 188.555 10.916C188.966 10.7853 189.414 10.72 189.899 10.72C190.926 10.72 191.813 10.9627 192.559 11.448C193.325 11.9147 193.913 12.68 194.323 13.744C194.734 14.808 194.939 16.2267 194.939 18C194.939 19.7733 194.715 21.192 194.267 22.256C193.838 23.32 193.166 24.0947 192.251 24.58C191.337 25.0467 190.179 25.28 188.779 25.28ZM187.519 23.32H188.779C189.339 23.32 189.825 23.1707 190.235 22.872C190.665 22.5547 190.991 22.0133 191.215 21.248C191.458 20.4827 191.579 19.4 191.579 18C191.579 16.6 191.467 15.5173 191.243 14.752C191.019 13.968 190.711 13.4267 190.319 13.128C189.946 12.8293 189.526 12.68 189.059 12.68C188.705 12.68 188.397 12.736 188.135 12.848C187.874 12.96 187.669 13.0907 187.519 13.24V23.32Z" fill="black"/>
<path d="M22.4728 6.70911C17.0182 0.818187 2.18188 4.09091 1.52734 6.70911V23.2909C5.01825 28.0909 20.5092 27 22.4728 23.2909V6.70911Z" fill="#FF6112"/>
<path d="M22.8454 6.71345C22.34 4.84145 18.579 3 12 3C5.42092 3 1.65946 4.84145 1.15459 6.71345C1.11794 6.7776 1.09088 6.84785 1.09088 6.92727V7.14545V12.1636V12.3818V12.6V17.4V17.6182V17.8364V23.0727C1.09088 23.1434 1.10965 23.2102 1.14194 23.2695C1.65728 25.4055 6.2679 27 12 27C17.719 27 22.3222 25.4121 22.8545 23.2839C22.8894 23.2215 22.9091 23.1495 22.9091 23.0727V17.8364V17.6182V17.4V12.6V12.3818V12.1636V7.14545V6.92727C22.9091 6.84785 22.882 6.7776 22.8454 6.71345ZM22.0019 17.8298C21.9896 17.8826 21.9726 17.935 21.9512 17.9882C21.9338 18.0314 21.9124 18.0746 21.8888 18.1178C21.8596 18.1715 21.8269 18.2252 21.788 18.2788C21.7592 18.3194 21.7265 18.3596 21.6925 18.3997C21.644 18.4569 21.5925 18.514 21.5341 18.5708C21.4987 18.6052 21.4599 18.6393 21.4206 18.6737C21.3491 18.7361 21.2744 18.7981 21.1911 18.8596C21.1553 18.8863 21.1169 18.912 21.079 18.9382C20.9803 19.0063 20.8774 19.0739 20.7643 19.1402C20.7347 19.1581 20.7028 19.1751 20.6718 19.1926C20.5418 19.2659 20.4061 19.3388 20.2595 19.4095C20.2407 19.4186 20.2211 19.4273 20.2019 19.4361C20.0382 19.5133 19.8672 19.5892 19.6843 19.6625C19.6791 19.6647 19.6739 19.6665 19.6686 19.6687C18.6776 20.0644 17.41 20.3974 15.9329 20.6156C15.9255 20.6164 15.9181 20.6173 15.9107 20.6186C15.6235 20.6609 15.329 20.6985 15.0266 20.7316C14.9773 20.7369 14.9254 20.7404 14.8756 20.7456C14.6116 20.7731 14.3446 20.7984 14.0696 20.8185C13.944 20.8276 13.8122 20.832 13.6843 20.8399C13.4775 20.8521 13.2728 20.8656 13.0608 20.873C12.7143 20.8839 12.3608 20.8909 12 20.8909C11.6391 20.8909 11.2856 20.8839 10.9387 20.8717C10.7267 20.8643 10.522 20.8503 10.3152 20.8385C10.1873 20.8311 10.0555 20.8263 9.92986 20.8172C9.65495 20.7971 9.3879 20.7718 9.1239 20.7443C9.07415 20.7391 9.02223 20.7356 8.97292 20.7303C8.67052 20.6972 8.37597 20.6592 8.08884 20.6173C8.08143 20.6164 8.07401 20.6156 8.06659 20.6143C6.5895 20.3961 5.32186 20.0631 4.33088 19.6673C4.32564 19.6656 4.32041 19.6634 4.31517 19.6612C4.13234 19.5879 3.96084 19.512 3.79764 19.4348C3.77888 19.4256 3.75881 19.4169 3.74004 19.4081C3.59343 19.3375 3.45772 19.265 3.32768 19.1913C3.29714 19.1738 3.26484 19.1568 3.23517 19.1389C3.12215 19.0726 3.01917 19.0049 2.92055 18.9369C2.88303 18.9107 2.84419 18.8849 2.80841 18.8583C2.72506 18.7968 2.65044 18.7348 2.57888 18.6724C2.54004 18.6384 2.50077 18.6044 2.46543 18.5695C2.40695 18.5127 2.35546 18.456 2.30703 18.3984C2.27299 18.3583 2.24026 18.3181 2.21146 18.2775C2.17306 18.2239 2.14034 18.1702 2.11066 18.1165C2.0871 18.0733 2.06615 18.0301 2.04826 17.9869C2.02688 17.9341 2.00986 17.8813 1.99764 17.8285C1.9815 17.7591 1.96361 17.6884 1.96361 17.6182C1.96361 17.5689 1.96928 17.5196 1.97714 17.4707C1.98804 17.4048 1.98194 17.3389 1.96361 17.2765V14.0369C1.97583 14.0483 1.9911 14.0592 2.00375 14.0705C2.09888 14.1543 2.19575 14.2377 2.30484 14.318C3.94863 15.5612 7.23575 16.5273 12 16.5273C16.7441 16.5273 20.023 15.569 21.6737 14.3332C21.8055 14.2372 21.9242 14.1382 22.0359 14.0374L22.0363 17.2765C22.018 17.3389 22.0119 17.4048 22.0228 17.4707C22.0311 17.5196 22.0363 17.5689 22.0363 17.6182C22.0363 17.6884 22.0184 17.7591 22.0019 17.8298ZM22.0363 8.80058V12.0401C22.018 12.1025 22.0119 12.1684 22.0228 12.2343C22.0311 12.2832 22.0363 12.3325 22.0363 12.3818C22.0363 12.4521 22.0184 12.5228 22.0019 12.5935C21.9896 12.6463 21.9726 12.6986 21.9512 12.7519C21.9338 12.7951 21.9124 12.8383 21.8888 12.8815C21.8596 12.9351 21.8269 12.9888 21.788 13.0425C21.7592 13.0831 21.7265 13.1232 21.6925 13.1633C21.644 13.2205 21.5925 13.2777 21.5341 13.3344C21.4987 13.3689 21.4599 13.4029 21.4206 13.4374C21.3491 13.4998 21.2744 13.5617 21.1911 13.6233C21.1553 13.6499 21.1169 13.6756 21.079 13.7018C20.9803 13.7699 20.8774 13.8375 20.7643 13.9039C20.7347 13.9217 20.7028 13.9388 20.6718 13.9562C20.5418 14.0295 20.4061 14.1024 20.2595 14.1731C20.2407 14.1823 20.2211 14.191 20.2019 14.1997C20.0382 14.2769 19.8672 14.3529 19.6843 14.4262C19.6791 14.4284 19.6739 14.4301 19.6686 14.4323C18.6776 14.8281 17.41 15.161 15.9329 15.3792C15.9255 15.3801 15.9181 15.3809 15.9107 15.3823C15.6235 15.4246 15.329 15.4621 15.0266 15.4953C14.9773 15.5005 14.9254 15.504 14.8756 15.5092C14.6116 15.5367 14.3446 15.562 14.0696 15.5821C13.944 15.5913 13.8122 15.5956 13.6843 15.6035C13.4775 15.6157 13.2728 15.6292 13.0608 15.6367C12.7143 15.6476 12.3608 15.6545 12 15.6545C11.6391 15.6545 11.2856 15.6476 10.9387 15.6353C10.7267 15.6279 10.522 15.614 10.3152 15.6022C10.1873 15.5948 10.0555 15.59 9.92986 15.5808C9.65495 15.5607 9.3879 15.5354 9.1239 15.5079C9.07415 15.5027 9.02223 15.4992 8.97292 15.494C8.67052 15.4608 8.37597 15.4228 8.08884 15.3809C8.08143 15.3801 8.07401 15.3792 8.06659 15.3779C6.5895 15.1597 5.32186 14.8268 4.33088 14.431C4.32564 14.4292 4.32041 14.4271 4.31517 14.4249C4.13234 14.3516 3.96084 14.2756 3.79764 14.1984C3.77888 14.1892 3.75881 14.1805 3.74004 14.1718C3.59343 14.1011 3.45772 14.0287 3.32768 13.9549C3.29714 13.9375 3.26484 13.9204 3.23517 13.9025C3.12215 13.8362 3.01917 13.7686 2.92055 13.7005C2.88303 13.6743 2.84419 13.6486 2.80841 13.622C2.72506 13.5604 2.65044 13.4985 2.57888 13.4361C2.54004 13.402 2.50077 13.368 2.46543 13.3331C2.40695 13.2764 2.35546 13.2196 2.30703 13.162C2.27299 13.1219 2.24026 13.0817 2.21146 13.0412C2.17306 12.9875 2.14034 12.9338 2.11066 12.8801C2.0871 12.8369 2.06615 12.7937 2.04826 12.7505C2.02688 12.6977 2.00986 12.6449 1.99764 12.5921C1.9815 12.5228 1.96361 12.4521 1.96361 12.3818C1.96361 12.3325 1.96928 12.2832 1.97714 12.2343C1.98804 12.1684 1.98194 12.1025 1.96361 12.0401V8.80058C2.01597 8.84815 2.07575 8.89484 2.13248 8.94196C2.1639 8.96815 2.19314 8.99433 2.2263 9.02051C2.35721 9.12349 2.49859 9.22516 2.65175 9.32422C2.68361 9.34473 2.71939 9.3648 2.75255 9.38531C2.88084 9.46516 3.01655 9.54327 3.15924 9.62007C3.21204 9.64844 3.26484 9.67636 3.31939 9.70429C3.47866 9.78546 3.64579 9.86444 3.82164 9.9408C3.85044 9.95346 3.87663 9.96655 3.90586 9.97876C4.11052 10.0656 4.32783 10.1485 4.55386 10.2288C4.61626 10.2511 4.68172 10.272 4.74586 10.2938C4.92564 10.3545 5.11154 10.4125 5.30397 10.4688C5.37335 10.4889 5.44143 10.5098 5.51255 10.529C5.76783 10.5997 6.03139 10.6669 6.30804 10.7289C6.34601 10.7376 6.38703 10.7446 6.42543 10.7529C6.66935 10.8061 6.92244 10.8554 7.18252 10.9017C7.27066 10.9174 7.36012 10.9322 7.45001 10.9471C7.69743 10.9876 7.95226 11.0247 8.21364 11.0588C8.28084 11.0675 8.34499 11.0775 8.41306 11.0858C8.73772 11.1251 9.07372 11.1587 9.41888 11.1875C9.50397 11.1945 9.59255 11.1997 9.67895 11.2058C9.95517 11.2259 10.2375 11.2425 10.5264 11.2556C10.6315 11.2604 10.7363 11.2652 10.8436 11.2691C11.2198 11.2817 11.6029 11.2909 12 11.2909C12.3971 11.2909 12.7802 11.2817 13.1563 11.2691C13.2632 11.2652 13.368 11.2604 13.4736 11.2556C13.7624 11.2425 14.0448 11.2259 14.321 11.2058C14.4074 11.1993 14.4955 11.1945 14.5811 11.1875C14.9262 11.1591 15.2622 11.1251 15.5869 11.0858C15.655 11.0775 15.7191 11.0675 15.7863 11.0588C16.0477 11.0247 16.3021 10.9876 16.5499 10.9471C16.6398 10.9322 16.7293 10.9174 16.8174 10.9017C17.0775 10.8554 17.3306 10.8061 17.5745 10.7529C17.6129 10.7446 17.6539 10.7372 17.6919 10.7289C17.9686 10.6669 18.2321 10.5993 18.4874 10.529C18.5585 10.5094 18.6266 10.4889 18.696 10.4688C18.8884 10.4125 19.0743 10.3545 19.2541 10.2938C19.3182 10.272 19.3837 10.2511 19.4461 10.2288C19.6721 10.1485 19.8899 10.0656 20.0941 9.97876C20.1233 9.96655 20.1495 9.95346 20.1783 9.9408C20.3542 9.864 20.5213 9.78546 20.6806 9.70429C20.7351 9.67636 20.7883 9.64844 20.8407 9.62007C20.9834 9.54371 21.1191 9.4656 21.2474 9.38531C21.2806 9.3648 21.3163 9.34473 21.3482 9.32422C21.5014 9.22516 21.6427 9.12393 21.7736 9.02051C21.8064 8.99433 21.8356 8.96815 21.8675 8.94196C21.9242 8.89484 21.984 8.84815 22.0363 8.80058ZM12 3.87273C17.9149 3.87273 22.0363 5.59724 22.0363 7.14545C22.0363 8.69367 17.9149 10.4182 12 10.4182C6.08506 10.4182 1.96361 8.69367 1.96361 7.14545C1.96361 5.59724 6.08506 3.87273 12 3.87273ZM22.0363 22.9431C22.0302 22.9623 22.0259 22.982 22.0224 23.002C21.775 24.5114 17.6884 26.1273 12 26.1273C6.31153 26.1273 2.22499 24.5114 1.97757 23.002C1.97408 22.9824 1.96928 22.9632 1.96361 22.9449V19.2733C1.97583 19.2847 1.9911 19.2956 2.00375 19.3069C2.09888 19.3907 2.19575 19.474 2.30484 19.5543C3.94863 20.7975 7.23575 21.7636 12 21.7636C16.7441 21.7636 20.023 20.8054 21.6737 19.5696C21.8055 19.4736 21.9242 19.3745 22.0359 19.2737L22.0363 22.9431Z" fill="white"/>
<path fill-rule="evenodd" clip-rule="evenodd" d="M24.1144 25.1692C25.8513 24.6959 27.2552 23.7912 27.6648 22.5868V7.30822C26.794 5.84423 25.5194 4.99447 24.1144 4.58143V25.1692Z" fill="#FF6112"/>
<path fill-rule="evenodd" clip-rule="evenodd" d="M24.1144 25.6819C26.1873 25.1466 27.6638 23.9926 27.8907 22.5805C27.9114 22.523 27.923 22.4566 27.923 22.3859V17.561V17.36V17.159V12.7362V12.5352V12.3342V7.71038V7.50935C27.923 7.43617 27.907 7.37144 27.8853 7.31234C27.6624 6.0271 26.3698 4.7575 24.1144 4.19379V5.02675C26.1366 5.5673 27.4064 6.68112 27.4064 7.71038C27.4064 8.73964 26.1366 9.85346 24.1144 10.394V11.2245C24.1294 11.2208 24.1443 11.217 24.1593 11.2132C24.2125 11.1995 24.2654 11.1859 24.3176 11.1714C24.4715 11.1288 24.6213 11.0833 24.7657 11.0343C24.7767 11.0306 24.7881 11.0271 24.7994 11.0235C24.8115 11.0198 24.8236 11.0161 24.8351 11.0122C24.9989 10.9551 25.1549 10.8927 25.306 10.828C25.3347 10.8157 25.3626 10.8029 25.3905 10.7902C25.4035 10.7843 25.4164 10.7784 25.4294 10.7725C25.5433 10.7207 25.6533 10.6672 25.7597 10.6113C25.7734 10.6041 25.7872 10.5969 25.8009 10.5898C25.8254 10.5771 25.8497 10.5645 25.8734 10.5514C26.0072 10.4774 26.136 10.401 26.2569 10.321C26.267 10.3145 26.2764 10.3077 26.2859 10.3008C26.2927 10.2959 26.2996 10.2909 26.3067 10.286C26.4108 10.2153 26.5097 10.1429 26.604 10.0681C26.6363 10.0424 26.6678 10.0166 26.6988 9.99051C26.7832 9.92015 26.8636 9.84818 26.9395 9.7742C26.9477 9.76629 26.9562 9.75846 26.9647 9.75063C26.9764 9.73976 26.9882 9.7289 26.9992 9.71791C27.0898 9.62664 27.1735 9.53336 27.251 9.43807C27.262 9.42428 27.2724 9.41049 27.2828 9.39671C27.2906 9.38637 27.2984 9.37603 27.3065 9.3657C27.3165 9.35279 27.3266 9.33992 27.3367 9.32706C27.3607 9.29663 27.3847 9.26623 27.4064 9.23543V12.2204C27.3956 12.2779 27.392 12.3386 27.3984 12.3993C27.4033 12.4443 27.4064 12.4898 27.4064 12.5352C27.4064 12.5955 27.3973 12.6561 27.3881 12.7168C27.3874 12.7213 27.3867 12.7257 27.386 12.7302C27.3788 12.7788 27.3687 12.8271 27.3561 12.8762C27.3458 12.916 27.3331 12.9558 27.3192 12.9956C27.3018 13.045 27.2825 13.0945 27.2595 13.1439C27.2424 13.1813 27.2231 13.2183 27.2029 13.2553C27.1743 13.308 27.1438 13.3606 27.1092 13.4129C27.0886 13.4442 27.0659 13.4752 27.043 13.5065L27.042 13.5078C26.9997 13.5653 26.9555 13.6224 26.9062 13.6791C26.8896 13.6983 26.872 13.717 26.8544 13.7359C26.8495 13.741 26.8447 13.7462 26.8398 13.7515C26.7814 13.8142 26.7205 13.8765 26.6536 13.9376C26.6414 13.949 26.6286 13.9601 26.6158 13.9712C26.6101 13.976 26.6045 13.9809 26.5988 13.9859C26.5219 14.0534 26.4416 14.1206 26.3548 14.1857C26.3458 14.1925 26.3365 14.1991 26.3273 14.2056C26.3251 14.2071 26.3229 14.2087 26.3207 14.2102C26.2238 14.2814 26.1226 14.3513 26.0144 14.4189C26.0123 14.4202 26.0102 14.4214 26.0081 14.4227C26.0071 14.4233 26.0061 14.4239 26.0051 14.4245C25.4915 14.7438 24.8524 15.0188 24.1144 15.2172V16.0516C25.5257 15.6987 26.5601 15.0694 27.1918 14.3332C27.2698 14.2448 27.3401 14.1535 27.4062 14.0606L27.4064 17.0452C27.3956 17.1027 27.392 17.1634 27.3984 17.2241C27.4033 17.2691 27.4064 17.3146 27.4064 17.36C27.4064 17.4203 27.3973 17.481 27.3881 17.5416C27.3874 17.5461 27.3867 17.5506 27.386 17.555C27.3788 17.6037 27.3687 17.6519 27.3561 17.701C27.3458 17.7408 27.3331 17.7806 27.3192 17.8204C27.3018 17.8698 27.2825 17.9193 27.2595 17.9687C27.2424 18.0061 27.2231 18.0431 27.2029 18.0801C27.1743 18.1328 27.1438 18.1855 27.1092 18.2377C27.0886 18.269 27.0659 18.3 27.043 18.3313L27.042 18.3326C26.9997 18.3901 26.9555 18.4472 26.9062 18.5039C26.8896 18.5231 26.872 18.5418 26.8544 18.5607C26.8495 18.5659 26.8447 18.5711 26.8398 18.5763C26.7814 18.639 26.7205 18.7013 26.6536 18.7624C26.6414 18.7739 26.6286 18.7849 26.6158 18.796C26.6101 18.8009 26.6045 18.8057 26.5988 18.8107C26.5219 18.8782 26.4416 18.9454 26.3548 19.0105C26.3458 19.0173 26.3365 19.0239 26.3273 19.0304C26.3251 19.0319 26.3229 19.0335 26.3207 19.035C26.2238 19.1062 26.1226 19.1762 26.0144 19.2437C26.0113 19.2457 26.0082 19.2473 26.0051 19.2493C25.4915 19.5687 24.8524 19.8436 24.1144 20.042V20.8764C25.5257 20.5235 26.5601 19.8942 27.1918 19.1581C27.2698 19.0696 27.3401 18.9783 27.4062 18.8855L27.4064 22.2664C27.4028 22.2841 27.4002 22.3022 27.3982 22.3207C27.294 23.3098 26.0407 24.3485 24.1144 24.866V25.6819Z" fill="white"/>
<path fill-rule="evenodd" clip-rule="evenodd" d="M29.1283 25.1691C30.8652 24.6959 32.269 23.7911 32.6786 22.5868V7.3082C31.8079 5.84423 30.5332 4.99447 29.1283 4.58142V25.1691Z" fill="#FF6112"/>
<path fill-rule="evenodd" clip-rule="evenodd" d="M29.1283 25.6819C31.2011 25.1466 32.6776 23.9926 32.9045 22.5804C32.9252 22.5229 32.9368 22.4566 32.9368 22.3858V17.561V17.36V17.159V12.7362V12.5352V12.3341V7.71036V7.50933C32.9368 7.43615 32.9208 7.37142 32.8991 7.31232C32.6763 6.02709 31.3836 4.7575 29.1283 4.19379V5.02675C31.1505 5.56731 32.4203 6.68111 32.4203 7.71036C32.4203 8.73961 31.1505 9.85342 29.1283 10.394V11.2245C29.1433 11.2207 29.1582 11.217 29.1731 11.2132C29.2263 11.1995 29.2792 11.1858 29.3314 11.1714C29.4853 11.1287 29.6351 11.0833 29.7795 11.0343C29.7905 11.0306 29.8019 11.027 29.8133 11.0235C29.8254 11.0198 29.8374 11.0161 29.849 11.0121C30.0127 10.9551 30.1687 10.8927 30.3198 10.828C30.3486 10.8156 30.3765 10.8029 30.4044 10.7902C30.4173 10.7843 30.4302 10.7784 30.4433 10.7725C30.5571 10.7206 30.6672 10.6672 30.7736 10.6113C30.7872 10.604 30.801 10.5969 30.8148 10.5898C30.8392 10.5771 30.8636 10.5645 30.8872 10.5514C31.021 10.4774 31.1499 10.401 31.2707 10.321C31.2808 10.3144 31.2902 10.3076 31.2997 10.3008C31.3066 10.2958 31.3134 10.2909 31.3206 10.286C31.4247 10.2152 31.5236 10.1429 31.6178 10.0681C31.6501 10.0424 31.6816 10.0166 31.7126 9.99049C31.7971 9.92013 31.8774 9.84816 31.9533 9.77418C31.9615 9.76627 31.97 9.75844 31.9785 9.75062C31.9903 9.73974 32.002 9.72888 32.013 9.71789C32.1036 9.62662 32.1873 9.53334 32.2648 9.43805C32.2759 9.42426 32.2863 9.41048 32.2967 9.39669C32.3045 9.38635 32.3123 9.37601 32.3203 9.36568C32.3303 9.35277 32.3405 9.3399 32.3506 9.32704C32.3746 9.29661 32.3985 9.26621 32.4203 9.23541V12.2204C32.4094 12.2779 32.4058 12.3386 32.4123 12.3993C32.4172 12.4443 32.4203 12.4897 32.4203 12.5352C32.4203 12.5955 32.4111 12.6561 32.4019 12.7168C32.4012 12.7213 32.4006 12.7257 32.3999 12.7302C32.3927 12.7788 32.3826 12.8271 32.3699 12.8761C32.3596 12.9159 32.3469 12.9557 32.333 12.9955C32.3157 13.045 32.2963 13.0945 32.2733 13.1439C32.2563 13.1813 32.2369 13.2183 32.2168 13.2553C32.1881 13.308 32.1576 13.3606 32.123 13.4129C32.1024 13.4442 32.0798 13.4751 32.0568 13.5064L32.0559 13.5078C32.0135 13.5653 31.9694 13.6224 31.92 13.6791C31.9034 13.6983 31.8859 13.717 31.8682 13.7358C31.8634 13.741 31.8585 13.7462 31.8536 13.7514C31.7953 13.8142 31.7343 13.8765 31.6674 13.9376C31.6553 13.949 31.6425 13.9601 31.6296 13.9711C31.624 13.976 31.6183 13.9809 31.6127 13.9858C31.5357 14.0534 31.4554 14.1205 31.3686 14.1857C31.3596 14.1925 31.3503 14.1991 31.3411 14.2056C31.3389 14.2071 31.3367 14.2087 31.3345 14.2102C31.2377 14.2814 31.1364 14.3513 31.0282 14.4189C31.0267 14.4199 31.0251 14.4208 31.0236 14.4217C31.022 14.4226 31.0205 14.4235 31.0189 14.4245C30.5054 14.7438 29.8662 15.0187 29.1283 15.2172V16.0516C30.5395 15.6987 31.574 15.0694 32.2057 14.3332C32.2837 14.2448 32.3539 14.1535 32.42 14.0606L32.4203 17.0452C32.4094 17.1027 32.4058 17.1634 32.4123 17.2241C32.4172 17.2691 32.4203 17.3146 32.4203 17.36C32.4203 17.4203 32.4111 17.4809 32.4019 17.5416C32.4012 17.5461 32.4006 17.5505 32.3999 17.555C32.3927 17.6036 32.3826 17.6519 32.3699 17.7009C32.3596 17.7408 32.3469 17.7806 32.333 17.8204C32.3157 17.8698 32.2963 17.9193 32.2733 17.9687C32.2563 18.0061 32.2369 18.0431 32.2168 18.0801C32.1881 18.1328 32.1576 18.1854 32.123 18.2377C32.1024 18.269 32.0798 18.3 32.0568 18.3313L32.0559 18.3326C32.0135 18.3901 31.9694 18.4472 31.92 18.5039C31.9034 18.5231 31.8859 18.5418 31.8682 18.5606C31.8634 18.5658 31.8585 18.571 31.8536 18.5762C31.7953 18.639 31.7343 18.7013 31.6674 18.7624C31.6553 18.7738 31.6425 18.7849 31.6296 18.7959C31.624 18.8008 31.6183 18.8057 31.6127 18.8107C31.5357 18.8782 31.4554 18.9453 31.3686 19.0105C31.3575 19.0189 31.3459 19.027 31.3345 19.035C31.2377 19.1062 31.1364 19.1761 31.0282 19.2437C31.0267 19.2447 31.0251 19.2456 31.0236 19.2465C31.022 19.2474 31.0205 19.2483 31.0189 19.2493C30.5054 19.5686 29.8662 19.8436 29.1283 20.042V20.8764C30.5395 20.5235 31.574 19.8942 32.2057 19.158C32.2837 19.0696 32.3539 18.9783 32.42 18.8854L32.4203 22.2664C32.4167 22.2841 32.4141 22.3022 32.412 22.3207C32.3079 23.3098 31.0546 24.3484 29.1283 24.8659V25.6819Z" fill="white"/>
<path fill-rule="evenodd" clip-rule="evenodd" d="M34.1422 25.1691C35.8791 24.6959 37.283 23.7911 37.6925 22.5868V7.3082C36.8218 5.84423 35.5472 4.99447 34.1422 4.58142V25.1691Z" fill="#FF6112"/>
<path fill-rule="evenodd" clip-rule="evenodd" d="M34.1422 25.6819C36.215 25.1466 37.6915 23.9926 37.9185 22.5804C37.9391 22.5229 37.9507 22.4566 37.9507 22.3858V17.561V17.36V17.159V12.7362V12.5352V12.3341V7.71036V7.50933C37.9507 7.43615 37.9347 7.37142 37.913 7.31232C37.6902 6.02709 36.3975 4.7575 34.1422 4.19379V5.02675C36.1644 5.56731 37.4342 6.68111 37.4342 7.71036C37.4342 8.73961 36.1644 9.85342 34.1422 10.394V11.2245C34.1572 11.2207 34.1721 11.217 34.187 11.2132C34.2402 11.1995 34.2932 11.1858 34.3453 11.1714C34.4993 11.1287 34.649 11.0833 34.7934 11.0343C34.8044 11.0306 34.8158 11.027 34.8272 11.0235C34.8393 11.0198 34.8513 11.0161 34.8629 11.0121C35.0266 10.9551 35.1826 10.8927 35.3337 10.828C35.3625 10.8156 35.3904 10.8029 35.4183 10.7902C35.4312 10.7843 35.4442 10.7784 35.4572 10.7725C35.5711 10.7206 35.6811 10.6672 35.7875 10.6113C35.8012 10.604 35.8149 10.5969 35.8287 10.5898C35.8531 10.5771 35.8775 10.5645 35.9011 10.5514C36.0349 10.4774 36.1638 10.401 36.2847 10.321C36.2947 10.3144 36.3042 10.3076 36.3137 10.3008C36.3205 10.2958 36.3274 10.2909 36.3345 10.286C36.4386 10.2152 36.5375 10.1429 36.6318 10.0681C36.664 10.0424 36.6956 10.0166 36.7265 9.99049C36.811 9.92013 36.8913 9.84816 36.9673 9.77418C36.9755 9.76627 36.9839 9.75844 36.9924 9.75062C37.0042 9.73974 37.0159 9.72888 37.0269 9.71789C37.1176 9.62662 37.2012 9.53334 37.2787 9.43805C37.2898 9.42426 37.3002 9.41048 37.3106 9.39669C37.3184 9.38635 37.3262 9.37601 37.3343 9.36568C37.3442 9.35277 37.3544 9.3399 37.3645 9.32704C37.3885 9.29661 37.4124 9.26621 37.4342 9.23541V12.2204C37.4234 12.2779 37.4197 12.3386 37.4262 12.3993C37.4311 12.4443 37.4342 12.4897 37.4342 12.5352C37.4342 12.5955 37.425 12.6561 37.4158 12.7168C37.4151 12.7213 37.4145 12.7257 37.4138 12.7302C37.4066 12.7788 37.3965 12.8271 37.3838 12.8761C37.3735 12.9159 37.3609 12.9557 37.3469 12.9955C37.3296 13.045 37.3102 13.0945 37.2872 13.1439C37.2702 13.1813 37.2508 13.2183 37.2307 13.2553C37.202 13.308 37.1715 13.3606 37.1369 13.4129C37.1163 13.4442 37.0937 13.4751 37.0708 13.5064L37.0698 13.5078C37.0274 13.5653 36.9833 13.6224 36.9339 13.6791C36.9173 13.6983 36.8998 13.717 36.8821 13.7358C36.8773 13.741 36.8724 13.7462 36.8676 13.7514C36.8092 13.8142 36.7482 13.8765 36.6814 13.9376C36.6692 13.949 36.6564 13.9601 36.6436 13.9711C36.6379 13.976 36.6322 13.9809 36.6266 13.9858C36.5496 14.0534 36.4693 14.1205 36.3825 14.1857C36.3736 14.1925 36.3642 14.1991 36.355 14.2056C36.3528 14.2071 36.3506 14.2087 36.3484 14.2102C36.2516 14.2814 36.1504 14.3513 36.0421 14.4189C36.0406 14.4199 36.039 14.4208 36.0375 14.4217C36.0359 14.4226 36.0344 14.4235 36.0328 14.4245C35.5193 14.7438 34.8802 15.0187 34.1422 15.2172V16.0516C35.5534 15.6987 36.5879 15.0694 37.2196 14.3332C37.2976 14.2448 37.3678 14.1535 37.4339 14.0606L37.4342 17.0452C37.4234 17.1027 37.4197 17.1634 37.4262 17.2241C37.4311 17.2691 37.4342 17.3146 37.4342 17.36C37.4342 17.4203 37.425 17.4809 37.4158 17.5416C37.4151 17.5461 37.4145 17.5505 37.4138 17.555C37.4066 17.6036 37.3965 17.6519 37.3838 17.7009C37.3735 17.7408 37.3609 17.7806 37.3469 17.8204C37.3296 17.8698 37.3102 17.9193 37.2872 17.9687C37.2702 18.0061 37.2508 18.0431 37.2307 18.0801C37.202 18.1328 37.1715 18.1854 37.1369 18.2377C37.1163 18.269 37.0937 18.3 37.0708 18.3313L37.0698 18.3326C37.0274 18.3901 36.9833 18.4472 36.9339 18.5039C36.9173 18.5231 36.8998 18.5418 36.8822 18.5606C36.8773 18.5658 36.8724 18.571 36.8676 18.5762C36.8092 18.639 36.7482 18.7013 36.6814 18.7624C36.6692 18.7738 36.6564 18.7849 36.6435 18.7959C36.6379 18.8008 36.6322 18.8057 36.6266 18.8107C36.5496 18.8782 36.4693 18.9453 36.3825 19.0105C36.3736 19.0173 36.3642 19.0239 36.355 19.0304C36.3528 19.0319 36.3506 19.0335 36.3484 19.035C36.2516 19.1062 36.1504 19.1761 36.0421 19.2437C36.0406 19.2447 36.039 19.2456 36.0375 19.2465C36.0359 19.2474 36.0344 19.2483 36.0328 19.2493C35.5193 19.5686 34.8802 19.8436 34.1422 20.042V20.8764C35.5534 20.5235 36.5879 19.8942 37.2196 19.158C37.2976 19.0696 37.3678 18.9783 37.4339 18.8854L37.4342 22.2664C37.4306 22.2841 37.428 22.3022 37.4259 22.3207C37.3218 23.3098 36.0685 24.3484 34.1422 24.8659V25.6819Z" fill="white"/>
</svg>
