<svg width="360" height="40" viewBox="0 0 360 40" fill="none" xmlns="http://www.w3.org/2000/svg">
<path d="M212.86 30.28C211.815 30.28 210.909 30.2333 210.144 30.14C209.397 30.0653 208.669 29.9253 207.96 29.72V10.68C208.669 10.4747 209.397 10.3347 210.144 10.26C210.909 10.1667 211.815 10.12 212.86 10.12C214.409 10.12 215.707 10.4373 216.752 11.072C217.816 11.7067 218.619 12.7613 219.16 14.236C219.72 15.692 220 17.68 220 20.2C220 22.72 219.72 24.7173 219.16 26.192C218.619 27.6667 217.816 28.7213 216.752 29.356C215.707 29.972 214.409 30.28 212.86 30.28ZM211.32 28.18H212.86C213.607 28.18 214.26 27.956 214.82 27.508C215.399 27.0413 215.847 26.2293 216.164 25.072C216.481 23.9147 216.64 22.2907 216.64 20.2C216.64 18.0907 216.481 16.4667 216.164 15.328C215.847 14.1707 215.399 13.368 214.82 12.92C214.26 12.4533 213.607 12.22 212.86 12.22H211.32V28.18ZM226.718 30.28C225.934 30.28 225.206 30.1587 224.534 29.916C223.88 29.6733 223.358 29.2347 222.966 28.6C222.574 27.9467 222.378 27.0133 222.378 25.8C222.378 24.5867 222.574 23.6627 222.966 23.028C223.376 22.3747 223.927 21.9267 224.618 21.684C225.327 21.4413 226.12 21.32 226.998 21.32C227.427 21.32 227.838 21.348 228.23 21.404C228.64 21.46 229.023 21.5253 229.378 21.6V20.48C229.378 19.36 229.116 18.6133 228.594 18.24C228.071 17.8667 227.352 17.68 226.438 17.68H223.638V16.28C224.067 16.1307 224.59 16 225.206 15.888C225.84 15.776 226.438 15.72 226.998 15.72C228.267 15.72 229.322 15.8507 230.162 16.112C231.02 16.3547 231.664 16.8213 232.094 17.512C232.523 18.184 232.738 19.1733 232.738 20.48V30H230.358L229.938 29.16H229.798C229.499 29.44 229.098 29.7013 228.594 29.944C228.108 30.168 227.483 30.28 226.718 30.28ZM227.838 28.32C228.192 28.32 228.5 28.264 228.762 28.152C229.042 28.0213 229.247 27.8907 229.378 27.76V23.28H227.838C227.52 23.28 227.194 23.3547 226.858 23.504C226.54 23.6533 226.27 23.9147 226.046 24.288C225.84 24.6427 225.738 25.1467 225.738 25.8C225.738 26.4533 225.84 26.9667 226.046 27.34C226.27 27.6947 226.54 27.9467 226.858 28.096C227.194 28.2453 227.52 28.32 227.838 28.32ZM240.987 30.28C240.203 30.28 239.475 30.1587 238.803 29.916C238.15 29.6547 237.627 29.188 237.235 28.516C236.843 27.8253 236.647 26.8267 236.647 25.52V18.38H235.107V16.28H236.647V12.92H240.007V16.28H243.787V17.82C243.376 17.9507 242.844 18.0813 242.191 18.212C241.538 18.324 240.856 18.38 240.147 18.38H240.007V25.52C240.007 26.2667 240.1 26.8453 240.287 27.256C240.474 27.648 240.707 27.928 240.987 28.096C241.267 28.2453 241.547 28.32 241.827 28.32H244.347V29.72C244.123 29.8133 243.815 29.9067 243.423 30C243.031 30.0747 242.62 30.14 242.191 30.196C241.762 30.252 241.36 30.28 240.987 30.28ZM249.96 30.28C249.176 30.28 248.448 30.1587 247.776 29.916C247.123 29.6733 246.6 29.2347 246.208 28.6C245.816 27.9467 245.62 27.0133 245.62 25.8C245.62 24.5867 245.816 23.6627 246.208 23.028C246.619 22.3747 247.169 21.9267 247.86 21.684C248.569 21.4413 249.363 21.32 250.24 21.32C250.669 21.32 251.08 21.348 251.472 21.404C251.883 21.46 252.265 21.5253 252.62 21.6V20.48C252.62 19.36 252.359 18.6133 251.836 18.24C251.313 17.8667 250.595 17.68 249.68 17.68H246.88V16.28C247.309 16.1307 247.832 16 248.448 15.888C249.083 15.776 249.68 15.72 250.24 15.72C251.509 15.72 252.564 15.8507 253.404 16.112C254.263 16.3547 254.907 16.8213 255.336 17.512C255.765 18.184 255.98 19.1733 255.98 20.48V30H253.6L253.18 29.16H253.04C252.741 29.44 252.34 29.7013 251.836 29.944C251.351 30.168 250.725 30.28 249.96 30.28ZM251.08 28.32C251.435 28.32 251.743 28.264 252.004 28.152C252.284 28.0213 252.489 27.8907 252.62 27.76V23.28H251.08C250.763 23.28 250.436 23.3547 250.1 23.504C249.783 23.6533 249.512 23.9147 249.288 24.288C249.083 24.6427 248.98 25.1467 248.98 25.8C248.98 26.4533 249.083 26.9667 249.288 27.34C249.512 27.6947 249.783 27.9467 250.1 28.096C250.436 28.2453 250.763 28.32 251.08 28.32ZM264.369 30.28C263.398 30.28 262.558 30.2053 261.849 30.056C261.158 29.9253 260.458 29.72 259.749 29.44V10.4H263.109V16.42C263.408 16.2147 263.753 16.0467 264.145 15.916C264.556 15.7853 265.004 15.72 265.489 15.72C266.516 15.72 267.402 15.9627 268.149 16.448C268.914 16.9147 269.502 17.68 269.913 18.744C270.324 19.808 270.529 21.2267 270.529 23C270.529 24.7733 270.305 26.192 269.857 27.256C269.428 28.32 268.756 29.0947 267.841 29.58C266.926 30.0467 265.769 30.28 264.369 30.28ZM263.109 28.32H264.369C264.929 28.32 265.414 28.1707 265.825 27.872C266.254 27.5547 266.581 27.0133 266.805 26.248C267.048 25.4827 267.169 24.4 267.169 23C267.169 21.6 267.057 20.5173 266.833 19.752C266.609 18.968 266.301 18.4267 265.909 18.128C265.536 17.8293 265.116 17.68 264.649 17.68C264.294 17.68 263.986 17.736 263.725 17.848C263.464 17.96 263.258 18.0907 263.109 18.24V28.32ZM277.112 30.28C276.328 30.28 275.6 30.1587 274.928 29.916C274.275 29.6733 273.752 29.2347 273.36 28.6C272.968 27.9467 272.772 27.0133 272.772 25.8C272.772 24.5867 272.968 23.6627 273.36 23.028C273.771 22.3747 274.322 21.9267 275.012 21.684C275.722 21.4413 276.515 21.32 277.392 21.32C277.822 21.32 278.232 21.348 278.624 21.404C279.035 21.46 279.418 21.5253 279.772 21.6V20.48C279.772 19.36 279.511 18.6133 278.988 18.24C278.466 17.8667 277.747 17.68 276.832 17.68H274.032V16.28C274.462 16.1307 274.984 16 275.6 15.888C276.235 15.776 276.832 15.72 277.392 15.72C278.662 15.72 279.716 15.8507 280.556 16.112C281.415 16.3547 282.059 16.8213 282.488 17.512C282.918 18.184 283.132 19.1733 283.132 20.48V30H280.752L280.332 29.16H280.192C279.894 29.44 279.492 29.7013 278.988 29.944C278.503 30.168 277.878 30.28 277.112 30.28ZM278.232 28.32C278.587 28.32 278.895 28.264 279.156 28.152C279.436 28.0213 279.642 27.8907 279.772 27.76V23.28H278.232C277.915 23.28 277.588 23.3547 277.252 23.504C276.935 23.6533 276.664 23.9147 276.44 24.288C276.235 24.6427 276.132 25.1467 276.132 25.8C276.132 26.4533 276.235 26.9667 276.44 27.34C276.664 27.6947 276.935 27.9467 277.252 28.096C277.588 28.2453 277.915 28.32 278.232 28.32ZM289.701 30.28C289.011 30.28 288.339 30.2147 287.685 30.084C287.032 29.972 286.491 29.8507 286.061 29.72V28.32H289.141C290.187 28.32 290.98 28.1707 291.521 27.872C292.081 27.5547 292.361 27.0507 292.361 26.36C292.361 25.8747 292.203 25.4827 291.885 25.184C291.568 24.8667 291.157 24.596 290.653 24.372C290.168 24.148 289.636 23.924 289.057 23.7C288.497 23.4573 287.965 23.1773 287.461 22.86C286.976 22.524 286.575 22.104 286.257 21.6C285.94 21.0773 285.781 20.424 285.781 19.64C285.781 18.0907 286.248 17.0547 287.181 16.532C288.133 15.9907 289.487 15.72 291.241 15.72C291.951 15.72 292.632 15.776 293.285 15.888C293.939 16 294.471 16.1307 294.881 16.28V17.68H291.801C291.036 17.68 290.401 17.82 289.897 18.1C289.393 18.38 289.141 18.8 289.141 19.36C289.141 19.8453 289.3 20.2467 289.617 20.564C289.935 20.8627 290.336 21.124 290.821 21.348C291.325 21.572 291.857 21.8053 292.417 22.048C292.996 22.272 293.528 22.552 294.013 22.888C294.517 23.2053 294.928 23.616 295.245 24.12C295.563 24.624 295.721 25.2773 295.721 26.08C295.721 27.2 295.497 28.068 295.049 28.684C294.62 29.2813 293.957 29.7013 293.061 29.944C292.184 30.168 291.064 30.28 289.701 30.28ZM303.983 30.28C302.545 30.28 301.36 30.0467 300.427 29.58C299.493 29.0947 298.803 28.32 298.355 27.256C297.907 26.192 297.683 24.7733 297.683 23C297.683 21.2267 297.888 19.808 298.299 18.744C298.728 17.68 299.335 16.9147 300.119 16.448C300.921 15.9627 301.883 15.72 303.003 15.72C304.123 15.72 305.075 15.9627 305.859 16.448C306.661 16.9147 307.268 17.68 307.679 18.744C308.108 19.808 308.323 21.2267 308.323 23V23.98H301.043C301.043 25.5853 301.323 26.7147 301.883 27.368C302.461 28.0027 303.348 28.32 304.543 28.32H307.623V29.72C307.212 29.8507 306.68 29.972 306.027 30.084C305.373 30.2147 304.692 30.28 303.983 30.28ZM301.043 22.02H304.963C304.963 20.8067 304.879 19.8827 304.711 19.248C304.543 18.5947 304.309 18.1467 304.011 17.904C303.712 17.6613 303.376 17.54 303.003 17.54C302.629 17.54 302.293 17.6613 301.995 17.904C301.696 18.1467 301.463 18.5947 301.295 19.248C301.127 19.8827 301.043 20.8067 301.043 22.02ZM318.401 30V10.4H321.761V27.76H328.621V30H318.401ZM334.37 30.28C333.586 30.28 332.858 30.1587 332.186 29.916C331.533 29.6733 331.01 29.2347 330.618 28.6C330.226 27.9467 330.03 27.0133 330.03 25.8C330.03 24.5867 330.226 23.6627 330.618 23.028C331.029 22.3747 331.579 21.9267 332.27 21.684C332.979 21.4413 333.773 21.32 334.65 21.32C335.079 21.32 335.49 21.348 335.882 21.404C336.293 21.46 336.675 21.5253 337.03 21.6V20.48C337.03 19.36 336.769 18.6133 336.246 18.24C335.723 17.8667 335.005 17.68 334.09 17.68H331.29V16.28C331.719 16.1307 332.242 16 332.858 15.888C333.493 15.776 334.09 15.72 334.65 15.72C335.919 15.72 336.974 15.8507 337.814 16.112C338.673 16.3547 339.317 16.8213 339.746 17.512C340.175 18.184 340.39 19.1733 340.39 20.48V30H338.01L337.59 29.16H337.45C337.151 29.44 336.75 29.7013 336.246 29.944C335.761 30.168 335.135 30.28 334.37 30.28ZM335.49 28.32C335.845 28.32 336.153 28.264 336.414 28.152C336.694 28.0213 336.899 27.8907 337.03 27.76V23.28H335.49C335.173 23.28 334.846 23.3547 334.51 23.504C334.193 23.6533 333.922 23.9147 333.698 24.288C333.493 24.6427 333.39 25.1467 333.39 25.8C333.39 26.4533 333.493 26.9667 333.698 27.34C333.922 27.6947 334.193 27.9467 334.51 28.096C334.846 28.2453 335.173 28.32 335.49 28.32ZM348.779 30.28C347.809 30.28 346.969 30.2053 346.259 30.056C345.569 29.9253 344.869 29.72 344.159 29.44V10.4H347.519V16.42C347.818 16.2147 348.163 16.0467 348.555 15.916C348.966 15.7853 349.414 15.72 349.899 15.72C350.926 15.72 351.813 15.9627 352.559 16.448C353.325 16.9147 353.913 17.68 354.323 18.744C354.734 19.808 354.939 21.2267 354.939 23C354.939 24.7733 354.715 26.192 354.267 27.256C353.838 28.32 353.166 29.0947 352.251 29.58C351.337 30.0467 350.179 30.28 348.779 30.28ZM347.519 28.32H348.779C349.339 28.32 349.825 28.1707 350.235 27.872C350.665 27.5547 350.991 27.0133 351.215 26.248C351.458 25.4827 351.579 24.4 351.579 23C351.579 21.6 351.467 20.5173 351.243 19.752C351.019 18.968 350.711 18.4267 350.319 18.128C349.946 17.8293 349.526 17.68 349.059 17.68C348.705 17.68 348.397 17.736 348.135 17.848C347.874 17.96 347.669 18.0907 347.519 18.24V28.32Z" fill="#555555"/>
<path d="M1.96 29V9.68C2.66933 9.47467 3.39733 9.33467 4.144 9.26C4.90933 9.16667 5.81467 9.12 6.86 9.12C8.40933 9.12 9.66 9.35333 10.612 9.82C11.5827 10.2867 12.292 11.0333 12.74 12.06C13.2067 13.0867 13.44 14.44 13.44 16.12C13.44 17.8933 13.2253 19.312 12.796 20.376C12.3667 21.44 11.7227 22.2147 10.864 22.7C10.024 23.1667 8.96933 23.4 7.7 23.4C7.49467 23.4 7.13067 23.372 6.608 23.316C6.104 23.26 5.67467 23.1947 5.32 23.12V29H1.96ZM5.32 21.16H6.86C7.56933 21.16 8.15733 21.0107 8.624 20.712C9.10933 20.4133 9.47333 19.9 9.716 19.172C9.95867 18.444 10.08 17.4267 10.08 16.12C10.08 14.8507 9.95867 13.8613 9.716 13.152C9.47333 12.4427 9.10933 11.948 8.624 11.668C8.15733 11.3693 7.56933 11.22 6.86 11.22H5.32V21.16ZM21.1302 29.28C19.9168 29.28 18.8902 29.0467 18.0502 28.58C17.2288 28.0947 16.6035 27.32 16.1742 26.256C15.7448 25.192 15.5302 23.7733 15.5302 22C15.5302 20.2267 15.7448 18.808 16.1742 17.744C16.6035 16.68 17.2288 15.9147 18.0502 15.448C18.8902 14.9627 19.9168 14.72 21.1302 14.72C22.3435 14.72 23.3608 14.9627 24.1822 15.448C25.0222 15.9147 25.6568 16.68 26.0862 17.744C26.5155 18.808 26.7302 20.2267 26.7302 22C26.7302 23.7733 26.5155 25.192 26.0862 26.256C25.6568 27.32 25.0222 28.0947 24.1822 28.58C23.3608 29.0467 22.3435 29.28 21.1302 29.28ZM21.1302 27.46C21.5595 27.46 21.9422 27.3107 22.2782 27.012C22.6142 26.6947 22.8755 26.144 23.0622 25.36C23.2675 24.5573 23.3702 23.4373 23.3702 22C23.3702 20.544 23.2675 19.424 23.0622 18.64C22.8755 17.856 22.6142 17.3147 22.2782 17.016C21.9422 16.6987 21.5595 16.54 21.1302 16.54C20.7195 16.54 20.3368 16.6987 19.9822 17.016C19.6462 17.3147 19.3755 17.856 19.1702 18.64C18.9835 19.424 18.8902 20.544 18.8902 22C18.8902 23.4373 18.9835 24.5573 19.1702 25.36C19.3755 26.144 19.6462 26.6947 19.9822 27.012C20.3368 27.3107 20.7195 27.46 21.1302 27.46ZM31.0833 29L28.2833 15H31.6433L33.3513 24.8H33.4633L35.7033 17.8H38.2233L40.4633 24.8H40.5753L42.2833 15H45.6433L42.8433 29H39.2033L37.0193 22.14H36.9073L34.7233 29H31.0833ZM53.4942 29.28C52.0569 29.28 50.8716 29.0467 49.9382 28.58C49.0049 28.0947 48.3142 27.32 47.8662 26.256C47.4182 25.192 47.1942 23.7733 47.1942 22C47.1942 20.2267 47.3996 18.808 47.8102 17.744C48.2396 16.68 48.8462 15.9147 49.6302 15.448C50.4329 14.9627 51.3942 14.72 52.5142 14.72C53.6342 14.72 54.5862 14.9627 55.3702 15.448C56.1729 15.9147 56.7796 16.68 57.1902 17.744C57.6196 18.808 57.8342 20.2267 57.8342 22V22.98H50.5542C50.5542 24.5853 50.8342 25.7147 51.3942 26.368C51.9729 27.0027 52.8596 27.32 54.0542 27.32H57.1342V28.72C56.7236 28.8507 56.1916 28.972 55.5382 29.084C54.8849 29.2147 54.2036 29.28 53.4942 29.28ZM50.5542 21.02H54.4742C54.4742 19.8067 54.3902 18.8827 54.2222 18.248C54.0542 17.5947 53.8209 17.1467 53.5222 16.904C53.2236 16.6613 52.8876 16.54 52.5142 16.54C52.1409 16.54 51.8049 16.6613 51.5062 16.904C51.2076 17.1467 50.9742 17.5947 50.8062 18.248C50.6382 18.8827 50.5542 19.8067 50.5542 21.02ZM60.7731 29V15H63.1531L63.5731 16.12H63.7131C64.0118 15.84 64.4131 15.588 64.9171 15.364C65.4211 15.1213 66.0931 15 66.9331 15H68.7531V17.38H65.6731C65.3185 17.38 65.0105 17.436 64.7491 17.548C64.4878 17.66 64.2825 17.7907 64.1331 17.94V29H60.7731ZM76.1895 29.28C74.7522 29.28 73.5669 29.0467 72.6335 28.58C71.7002 28.0947 71.0095 27.32 70.5615 26.256C70.1135 25.192 69.8895 23.7733 69.8895 22C69.8895 20.2267 70.0949 18.808 70.5055 17.744C70.9349 16.68 71.5415 15.9147 72.3255 15.448C73.1282 14.9627 74.0895 14.72 75.2095 14.72C76.3295 14.72 77.2815 14.9627 78.0655 15.448C78.8682 15.9147 79.4749 16.68 79.8855 17.744C80.3149 18.808 80.5295 20.2267 80.5295 22V22.98H73.2495C73.2495 24.5853 73.5295 25.7147 74.0895 26.368C74.6682 27.0027 75.5549 27.32 76.7495 27.32H79.8295V28.72C79.4189 28.8507 78.8869 28.972 78.2335 29.084C77.5802 29.2147 76.8989 29.28 76.1895 29.28ZM73.2495 21.02H77.1695C77.1695 19.8067 77.0855 18.8827 76.9175 18.248C76.7495 17.5947 76.5162 17.1467 76.2175 16.904C75.9189 16.6613 75.5829 16.54 75.2095 16.54C74.8362 16.54 74.5002 16.6613 74.2015 16.904C73.9029 17.1467 73.6695 17.5947 73.5015 18.248C73.3335 18.8827 73.2495 19.8067 73.2495 21.02ZM87.5284 29.28C86.5951 29.28 85.7644 29.0467 85.0364 28.58C84.3271 28.0947 83.7671 27.32 83.3564 26.256C82.9644 25.192 82.7684 23.7733 82.7684 22C82.7684 20.2267 82.9738 18.808 83.3844 17.744C83.7951 16.68 84.3738 15.9147 85.1204 15.448C85.8858 14.9627 86.7818 14.72 87.8084 14.72C88.2938 14.72 88.7324 14.7853 89.1244 14.916C89.5351 15.0467 89.8898 15.2147 90.1884 15.42V9.4H93.5484V29H91.1684L90.7484 28.16H90.6084C90.3098 28.44 89.9084 28.7013 89.4044 28.944C88.9191 29.168 88.2938 29.28 87.5284 29.28ZM88.6484 27.32C89.0031 27.32 89.2924 27.264 89.5164 27.152C89.7591 27.0213 89.9831 26.8907 90.1884 26.76V17.24C90.0578 17.0907 89.8524 16.96 89.5724 16.848C89.3111 16.736 89.0031 16.68 88.6484 16.68C88.1818 16.68 87.7524 16.8293 87.3604 17.128C86.9871 17.4267 86.6884 17.968 86.4644 18.752C86.2404 19.5173 86.1284 20.6 86.1284 22C86.1284 23.4 86.2404 24.4827 86.4644 25.248C86.6884 26.0133 86.9871 26.5547 87.3604 26.872C87.7524 27.1707 88.1818 27.32 88.6484 27.32ZM109.092 29.28C108.121 29.28 107.281 29.2053 106.572 29.056C105.881 28.9253 105.181 28.72 104.472 28.44V9.4H107.832V15.42C108.13 15.2147 108.476 15.0467 108.868 14.916C109.278 14.7853 109.726 14.72 110.212 14.72C111.238 14.72 112.125 14.9627 112.872 15.448C113.637 15.9147 114.225 16.68 114.636 17.744C115.046 18.808 115.252 20.2267 115.252 22C115.252 23.7733 115.028 25.192 114.58 26.256C114.15 27.32 113.478 28.0947 112.564 28.58C111.649 29.0467 110.492 29.28 109.092 29.28ZM107.832 27.32H109.092C109.652 27.32 110.137 27.1707 110.548 26.872C110.977 26.5547 111.304 26.0133 111.528 25.248C111.77 24.4827 111.892 23.4 111.892 22C111.892 20.6 111.78 19.5173 111.556 18.752C111.332 17.968 111.024 17.4267 110.632 17.128C110.258 16.8293 109.838 16.68 109.372 16.68C109.017 16.68 108.709 16.736 108.448 16.848C108.186 16.96 107.981 17.0907 107.832 17.24V27.32ZM122.675 34.88C121.984 34.88 121.312 34.8147 120.659 34.684C120.006 34.572 119.464 34.4507 119.035 34.32V32.92H122.115C123.16 32.92 123.954 32.5933 124.495 31.94C125.055 31.2867 125.335 30.12 125.335 28.44C124.98 28.72 124.56 28.9253 124.075 29.056C123.608 29.2053 123.095 29.28 122.535 29.28C121.751 29.28 121.023 29.1587 120.351 28.916C119.698 28.6733 119.175 28.2347 118.783 27.6C118.391 26.9467 118.195 26.0133 118.195 24.8V15H121.555V24.8C121.555 25.7707 121.788 26.4333 122.255 26.788C122.722 27.1427 123.235 27.32 123.795 27.32C124.15 27.32 124.458 27.264 124.719 27.152C124.999 27.0213 125.204 26.8907 125.335 26.76V15H128.695V27.88C128.695 29.56 128.471 30.9133 128.023 31.94C127.594 32.9667 126.931 33.7133 126.035 34.18C125.158 34.6467 124.038 34.88 122.675 34.88Z" fill="#555555"/>
<g clip-path="url(#clip0_673_6)">
<path d="M173.014 6.10912C164.03 -3.59362 139.594 1.79678 138.516 6.10912V33.4205C144.265 41.3264 169.78 39.5296 173.014 33.4205V6.10912Z" fill="#FF6112"/>
<path d="M173.628 6.11631C172.796 3.033 166.601 0 155.765 0C144.929 0 138.733 3.033 137.902 6.11631C137.841 6.22196 137.797 6.33767 137.797 6.46848V6.82784V15.0931V15.4525V15.8118V23.7178V24.0771V24.4365V33.0611C137.797 33.1776 137.828 33.2875 137.881 33.3853C138.73 36.9034 146.324 39.5296 155.765 39.5296C165.184 39.5296 172.766 36.9142 173.643 33.409C173.7 33.3062 173.733 33.1876 173.733 33.0611V24.4365V24.0771V23.7178V15.8118V15.4525V15.0931V6.82784V6.46848C173.733 6.33767 173.688 6.22196 173.628 6.11631ZM172.239 24.4257C172.218 24.5127 172.19 24.5989 172.155 24.6866C172.126 24.7577 172.091 24.8289 172.052 24.9001C172.004 24.9885 171.95 25.0769 171.886 25.1653C171.839 25.2321 171.785 25.2982 171.729 25.3643C171.649 25.4585 171.564 25.5527 171.468 25.6461C171.41 25.7029 171.346 25.7589 171.281 25.8157C171.163 25.9185 171.04 26.0205 170.903 26.1219C170.844 26.1657 170.781 26.2081 170.718 26.2512C170.556 26.3634 170.386 26.4748 170.2 26.584C170.151 26.6135 170.099 26.6415 170.048 26.6703C169.834 26.791 169.61 26.911 169.369 27.0275C169.338 27.0426 169.305 27.0569 169.274 27.0713C169.004 27.1985 168.723 27.3236 168.421 27.4443C168.413 27.4479 168.404 27.4508 168.396 27.4544C166.763 28.1063 164.675 28.6546 162.243 29.014C162.23 29.0154 162.218 29.0169 162.206 29.019C161.733 29.0888 161.248 29.1506 160.75 29.2052C160.669 29.2138 160.583 29.2196 160.501 29.2282C160.066 29.2735 159.626 29.3151 159.174 29.3482C158.967 29.3633 158.75 29.3705 158.539 29.3834C158.198 29.4036 157.861 29.4258 157.512 29.4381C156.941 29.456 156.359 29.4675 155.765 29.4675C155.17 29.4675 154.588 29.456 154.017 29.4359C153.668 29.4237 153.331 29.4007 152.99 29.3813C152.779 29.3691 152.562 29.3611 152.355 29.3461C151.902 29.313 151.463 29.2713 151.028 29.226C150.946 29.2174 150.86 29.2117 150.779 29.203C150.281 29.1484 149.796 29.0859 149.323 29.0169C149.311 29.0154 149.298 29.014 149.286 29.0119C146.853 28.6525 144.766 28.1041 143.133 27.4522C143.125 27.4494 143.116 27.4458 143.107 27.4422C142.806 27.3214 142.524 27.1964 142.255 27.0691C142.224 27.0541 142.191 27.0397 142.16 27.0253C141.919 26.9089 141.695 26.7896 141.481 26.6681C141.431 26.6394 141.377 26.6113 141.329 26.5819C141.142 26.4726 140.973 26.3612 140.81 26.2491C140.749 26.206 140.685 26.1636 140.626 26.1197C140.488 26.0184 140.366 25.9163 140.248 25.8135C140.184 25.7575 140.119 25.7014 140.061 25.6439C139.964 25.5505 139.88 25.4571 139.8 25.3622C139.744 25.2961 139.69 25.2299 139.642 25.1631C139.579 25.0747 139.525 24.9863 139.476 24.8979C139.438 24.8267 139.403 24.7556 139.374 24.6844C139.338 24.5975 139.31 24.5105 139.29 24.4235C139.264 24.3093 139.234 24.1928 139.234 24.0771C139.234 23.9959 139.244 23.9147 139.257 23.8342C139.275 23.7257 139.264 23.6171 139.234 23.5144V18.1786C139.254 18.1973 139.28 18.2152 139.3 18.2339C139.457 18.3719 139.617 18.5092 139.796 18.6414C142.504 20.6891 147.918 22.2803 155.765 22.2803C163.579 22.2803 168.979 20.702 171.698 18.6666C171.915 18.5085 172.111 18.3453 172.295 18.1793L172.295 23.5144C172.265 23.6171 172.255 23.7257 172.273 23.8342C172.287 23.9147 172.295 23.9959 172.295 24.0771C172.295 24.1928 172.266 24.3093 172.239 24.4257ZM172.295 9.55394V14.8897C172.265 14.9925 172.255 15.101 172.273 15.2096C172.287 15.29 172.295 15.3713 172.295 15.4525C172.295 15.5682 172.266 15.6846 172.239 15.8011C172.218 15.888 172.19 15.9743 172.155 16.062C172.126 16.1331 172.091 16.2043 172.052 16.2754C172.004 16.3638 171.95 16.4522 171.886 16.5406C171.839 16.6075 171.785 16.6736 171.729 16.7397C171.649 16.8339 171.564 16.928 171.468 17.0214C171.41 17.0782 171.346 17.1343 171.281 17.1911C171.163 17.2938 171.04 17.3959 170.903 17.4972C170.844 17.5411 170.781 17.5835 170.718 17.6266C170.556 17.7387 170.386 17.8501 170.2 17.9594C170.151 17.9888 170.099 18.0169 170.048 18.0456C169.834 18.1664 169.61 18.2864 169.369 18.4028C169.338 18.4179 169.305 18.4323 169.274 18.4467C169.004 18.5739 168.723 18.6989 168.421 18.8197C168.413 18.8233 168.404 18.8261 168.396 18.8297C166.763 19.4816 164.675 20.03 162.243 20.3894C162.23 20.3908 162.218 20.3922 162.206 20.3944C161.733 20.4641 161.248 20.5259 160.75 20.5805C160.669 20.5892 160.583 20.5949 160.501 20.6035C160.066 20.6488 159.626 20.6905 159.174 20.7236C158.967 20.7387 158.75 20.7459 158.539 20.7588C158.198 20.7789 157.861 20.8012 157.512 20.8134C156.941 20.8314 156.359 20.8429 155.765 20.8429C155.17 20.8429 154.588 20.8314 154.017 20.8113C153.668 20.799 153.331 20.776 152.99 20.7566C152.779 20.7444 152.562 20.7365 152.355 20.7214C151.902 20.6884 151.463 20.6467 151.028 20.6014C150.946 20.5928 150.86 20.587 150.779 20.5784C150.281 20.5238 149.796 20.4612 149.323 20.3922C149.311 20.3908 149.298 20.3894 149.286 20.3872C146.853 20.0278 144.766 19.4795 143.133 18.8276C143.125 18.8247 143.116 18.8211 143.107 18.8175C142.806 18.6968 142.524 18.5717 142.255 18.4445C142.224 18.4294 142.191 18.415 142.16 18.4007C141.919 18.2842 141.695 18.1649 141.481 18.0435C141.431 18.0147 141.377 17.9867 141.329 17.9572C141.142 17.848 140.973 17.7366 140.81 17.6245C140.749 17.5813 140.685 17.5389 140.626 17.4951C140.488 17.3937 140.366 17.2917 140.248 17.1889C140.184 17.1328 140.119 17.0768 140.061 17.0193C139.964 16.9259 139.88 16.8324 139.8 16.7376C139.744 16.6714 139.69 16.6053 139.642 16.5385C139.579 16.4501 139.525 16.3617 139.476 16.2733C139.438 16.2021 139.403 16.131 139.374 16.0598C139.338 15.9728 139.31 15.8859 139.29 15.7989C139.264 15.6846 139.234 15.5682 139.234 15.4525C139.234 15.3713 139.244 15.29 139.257 15.2096C139.275 15.101 139.264 14.9925 139.234 14.8897V9.55394C139.32 9.63229 139.419 9.70919 139.512 9.78681C139.564 9.82993 139.612 9.87306 139.667 9.91618C139.883 10.0858 140.115 10.2533 140.368 10.4164C140.42 10.4502 140.479 10.4832 140.534 10.517C140.745 10.6486 140.969 10.7772 141.204 10.9037C141.291 10.9504 141.377 10.9964 141.467 11.0424C141.73 11.1761 142.005 11.3062 142.295 11.432C142.342 11.4528 142.385 11.4744 142.433 11.4945C142.77 11.6375 143.128 11.7741 143.501 11.9063C143.603 11.943 143.711 11.9775 143.817 12.0134C144.113 12.1133 144.419 12.2089 144.736 12.3016C144.85 12.3347 144.962 12.3692 145.08 12.4008C145.5 12.5172 145.934 12.6279 146.39 12.73C146.452 12.7443 146.52 12.7558 146.583 12.7695C146.985 12.8572 147.402 12.9384 147.83 13.0146C147.975 13.0405 148.123 13.0649 148.271 13.0893C148.678 13.1562 149.098 13.2173 149.528 13.2733C149.639 13.2877 149.745 13.3042 149.857 13.3179C150.392 13.3826 150.945 13.4379 151.514 13.4853C151.654 13.4968 151.8 13.5055 151.942 13.5155C152.397 13.5486 152.862 13.5759 153.338 13.5975C153.511 13.6054 153.683 13.6133 153.86 13.6197C154.48 13.6406 155.111 13.6557 155.765 13.6557C156.419 13.6557 157.05 13.6406 157.669 13.6197C157.846 13.6133 158.018 13.6054 158.192 13.5975C158.668 13.5759 159.133 13.5486 159.588 13.5155C159.73 13.5047 159.875 13.4968 160.016 13.4853C160.585 13.4386 161.138 13.3826 161.673 13.3179C161.785 13.3042 161.89 13.2877 162.001 13.2733C162.432 13.2173 162.851 13.1562 163.259 13.0893C163.407 13.0649 163.554 13.0405 163.699 13.0146C164.128 12.9384 164.545 12.8572 164.946 12.7695C165.01 12.7558 165.077 12.7436 165.14 12.73C165.595 12.6279 166.03 12.5165 166.45 12.4008C166.567 12.3685 166.679 12.3347 166.794 12.3016C167.111 12.2089 167.417 12.1133 167.713 12.0134C167.818 11.9775 167.926 11.943 168.029 11.9063C168.401 11.7741 168.76 11.6375 169.096 11.4945C169.144 11.4744 169.188 11.4528 169.235 11.432C169.525 11.3055 169.8 11.1761 170.062 11.0424C170.152 10.9964 170.24 10.9504 170.326 10.9037C170.561 10.7779 170.785 10.6493 170.996 10.517C171.051 10.4832 171.109 10.4502 171.162 10.4164C171.414 10.2533 171.647 10.0865 171.863 9.91618C171.917 9.87306 171.965 9.82993 172.017 9.78681C172.111 9.70919 172.209 9.63229 172.295 9.55394ZM155.765 1.43744C165.507 1.43744 172.295 4.27782 172.295 6.82784C172.295 9.37786 165.507 12.2182 155.765 12.2182C146.023 12.2182 139.234 9.37786 139.234 6.82784C139.234 4.27782 146.023 1.43744 155.765 1.43744ZM172.295 32.8477C172.285 32.8793 172.278 32.9116 172.272 32.9447C171.865 35.4307 165.134 38.0922 155.765 38.0922C146.396 38.0922 139.665 35.4307 139.257 32.9447C139.252 32.9123 139.244 32.8807 139.234 32.8505V26.8032C139.254 26.8219 139.28 26.8399 139.3 26.8586C139.457 26.9966 139.617 27.1338 139.796 27.2661C142.504 29.3137 147.918 30.905 155.765 30.905C163.579 30.905 168.979 29.3267 171.698 27.2912C171.915 27.1331 172.111 26.97 172.295 26.8039L172.295 32.8477Z" fill="white"/>
</g>
<path fill-rule="evenodd" clip-rule="evenodd" d="M175.718 36.5141C178.579 35.7347 180.891 34.2445 181.566 32.2608V7.09599C180.132 4.6847 178.032 3.28509 175.718 2.60478V36.5141Z" fill="#FF6112"/>
<path fill-rule="evenodd" clip-rule="evenodd" d="M175.718 37.3586C179.132 36.4769 181.564 34.5762 181.938 32.2503C181.972 32.1556 181.991 32.0463 181.991 31.9298V23.983V23.6518V23.3207V16.0362V15.7051V15.3739V7.75826V7.42715C181.991 7.30662 181.965 7.2 181.929 7.10265C181.562 4.98579 179.433 2.89467 175.718 1.96621V3.33815C179.049 4.22847 181.14 6.06301 181.14 7.75826C181.14 9.45352 179.049 11.2881 175.718 12.1784V13.5462C175.743 13.5401 175.767 13.5339 175.792 13.5276C175.88 13.5051 175.967 13.4826 176.053 13.4588C176.306 13.3886 176.553 13.3137 176.791 13.2329C176.809 13.2268 176.828 13.221 176.846 13.2153C176.866 13.2091 176.886 13.203 176.905 13.1965C177.175 13.1025 177.432 12.9998 177.681 12.8932C177.728 12.8729 177.774 12.8519 177.82 12.8309C177.841 12.8212 177.863 12.8115 177.884 12.8018C178.072 12.7164 178.253 12.6283 178.428 12.5363C178.451 12.5244 178.473 12.5126 178.496 12.5009C178.536 12.48 178.576 12.4592 178.615 12.4376C178.836 12.3157 179.048 12.1899 179.247 12.0581C179.263 12.0474 179.279 12.0361 179.295 12.0249C179.306 12.0167 179.317 12.0086 179.329 12.0005C179.5 11.884 179.663 11.7648 179.819 11.6416C179.872 11.5992 179.924 11.5568 179.975 11.5138C180.114 11.3979 180.246 11.2794 180.371 11.1575C180.385 11.1445 180.399 11.1316 180.413 11.1187C180.432 11.1008 180.451 11.0829 180.469 11.0648C180.619 10.9145 180.757 10.7608 180.884 10.6039C180.902 10.5812 180.92 10.5585 180.937 10.5358C180.95 10.5187 180.962 10.5017 180.976 10.4847C180.992 10.4634 181.009 10.4422 181.025 10.421C181.065 10.3709 181.104 10.3208 181.14 10.2701V15.1865C181.122 15.2812 181.116 15.3812 181.127 15.4812C181.135 15.5554 181.14 15.6302 181.14 15.7051C181.14 15.8044 181.125 15.9043 181.11 16.0042C181.109 16.0115 181.108 16.0189 181.107 16.0262C181.095 16.1064 181.078 16.1858 181.057 16.2666C181.04 16.3322 181.019 16.3977 180.997 16.4633C180.968 16.5448 180.936 16.6262 180.898 16.7077C180.87 16.7693 180.838 16.8302 180.805 16.8911C180.758 16.9779 180.708 17.0646 180.651 17.1507C180.617 17.2023 180.579 17.2532 180.542 17.3048L180.54 17.307C180.47 17.4017 180.398 17.4957 180.316 17.5891C180.289 17.6208 180.26 17.6516 180.231 17.6826C180.223 17.6912 180.215 17.6997 180.207 17.7083C180.111 17.8116 180.01 17.9143 179.9 18.0149C179.88 18.0338 179.859 18.052 179.838 18.0702C179.829 18.0782 179.819 18.0863 179.81 18.0944C179.683 18.2056 179.551 18.3162 179.408 18.4235C179.393 18.4348 179.378 18.4456 179.363 18.4563C179.359 18.4588 179.356 18.4614 179.352 18.4639C179.192 18.5811 179.026 18.6964 178.847 18.8076C178.845 18.8093 178.842 18.8108 178.84 18.8122C178.837 18.8137 178.835 18.8152 178.832 18.8169C177.986 19.3428 176.934 19.7957 175.718 20.1225V21.4968C178.042 20.9156 179.746 19.8791 180.787 18.6666C180.915 18.5209 181.031 18.3705 181.14 18.2176L181.14 23.1333C181.122 23.228 181.116 23.328 181.127 23.428C181.135 23.5022 181.14 23.577 181.14 23.6518C181.14 23.7512 181.125 23.851 181.11 23.951C181.109 23.9583 181.108 23.9657 181.107 23.973C181.095 24.0532 181.078 24.1326 181.057 24.2134C181.04 24.279 181.019 24.3445 180.997 24.4101C180.968 24.4916 180.936 24.573 180.898 24.6545C180.87 24.7161 180.838 24.777 180.805 24.8379C180.758 24.9247 180.708 25.0114 180.651 25.0975C180.617 25.1491 180.579 25.2 180.542 25.2516L180.54 25.2538C180.47 25.3485 180.398 25.4425 180.316 25.5359C180.289 25.5676 180.26 25.5984 180.231 25.6294C180.223 25.6379 180.215 25.6465 180.207 25.6551C180.111 25.7584 180.01 25.861 179.9 25.9617C179.88 25.9805 179.859 25.9988 179.838 26.017C179.829 26.025 179.819 26.0331 179.81 26.0412C179.683 26.1524 179.551 26.263 179.408 26.3703C179.393 26.3815 179.378 26.3924 179.363 26.4031C179.359 26.4056 179.356 26.4082 179.352 26.4107C179.192 26.5279 179.026 26.6431 178.847 26.7544C178.845 26.7561 178.842 26.7575 178.84 26.759C178.837 26.7605 178.835 26.762 178.832 26.7637C177.986 27.2896 176.934 27.7425 175.718 28.0693V29.4436C178.042 28.8624 179.746 27.8259 180.787 26.6133C180.915 26.4677 181.031 26.3173 181.14 26.1644L181.14 31.7331C181.134 31.7622 181.13 31.792 181.127 31.8225C180.955 33.4515 178.891 35.1623 175.718 36.0146V37.3586Z" fill="white"/>
<path fill-rule="evenodd" clip-rule="evenodd" d="M183.976 36.5143C186.837 35.7349 189.149 34.2447 189.824 32.261V7.09618C188.39 4.68492 186.29 3.2853 183.976 2.605V36.5143Z" fill="#FF6112"/>
<path fill-rule="evenodd" clip-rule="evenodd" d="M183.976 37.3587C187.39 36.4771 189.822 34.5764 190.196 32.2505C190.23 32.1558 190.249 32.0465 190.249 31.9299V23.9832V23.652V23.3209V16.0364V15.7052V15.3741V7.75845V7.42734C190.249 7.30681 190.223 7.20019 190.187 7.10284C189.82 4.98601 187.691 2.89491 183.976 1.96643V3.33838C187.307 4.22871 189.398 6.06322 189.398 7.75845C189.398 9.45369 187.307 11.2882 183.976 12.1785V13.5464C184.001 13.5403 184.026 13.5341 184.05 13.5278C184.138 13.5053 184.225 13.4828 184.311 13.459C184.564 13.3888 184.811 13.3139 185.049 13.2331C185.067 13.227 185.086 13.2212 185.104 13.2155C185.124 13.2093 185.144 13.2032 185.163 13.1967C185.433 13.1027 185.69 13 185.939 12.8934C185.986 12.8731 186.032 12.8521 186.078 12.8311C186.099 12.8214 186.121 12.8117 186.142 12.802C186.33 12.7166 186.511 12.6285 186.686 12.5365C186.709 12.5245 186.731 12.5128 186.754 12.5011C186.794 12.4802 186.834 12.4594 186.873 12.4378C187.094 12.3159 187.306 12.1901 187.505 12.0583C187.522 12.0476 187.537 12.0363 187.553 12.0251C187.564 12.0169 187.575 12.0088 187.587 12.0007C187.759 11.8842 187.921 11.765 188.077 11.6418C188.13 11.5994 188.182 11.557 188.233 11.514C188.372 11.3981 188.504 11.2795 188.629 11.1577C188.643 11.1447 188.657 11.1318 188.671 11.1189C188.69 11.101 188.71 11.0831 188.728 11.065C188.877 10.9147 189.015 10.761 189.142 10.6041C189.161 10.5814 189.178 10.5587 189.195 10.5359C189.208 10.5189 189.22 10.5019 189.234 10.4849C189.25 10.4636 189.267 10.4424 189.284 10.4212C189.323 10.3711 189.363 10.321 189.398 10.2703V15.1867C189.381 15.2814 189.375 15.3814 189.385 15.4814C189.393 15.5556 189.398 15.6304 189.398 15.7052C189.398 15.8046 189.383 15.9045 189.368 16.0044C189.367 16.0117 189.366 16.0191 189.365 16.0264C189.353 16.1066 189.336 16.186 189.315 16.2668C189.298 16.3324 189.278 16.3979 189.255 16.4635C189.226 16.545 189.194 16.6264 189.156 16.7079C189.128 16.7695 189.096 16.8304 189.063 16.8913C189.016 16.9781 188.966 17.0648 188.909 17.1509C188.875 17.2025 188.838 17.2534 188.8 17.305L188.798 17.3072C188.728 17.4019 188.656 17.4959 188.574 17.5893C188.547 17.621 188.518 17.6518 188.489 17.6828C188.481 17.6914 188.473 17.6999 188.465 17.7085C188.369 17.8118 188.269 17.9145 188.158 18.0151C188.138 18.0339 188.117 18.0521 188.096 18.0704C188.087 18.0784 188.078 18.0865 188.068 18.0946C187.941 18.2058 187.809 18.3164 187.666 18.4237C187.651 18.4349 187.636 18.4458 187.621 18.4565C187.617 18.459 187.614 18.4616 187.61 18.4641C187.451 18.5813 187.284 18.6965 187.106 18.8078C187.103 18.8095 187.101 18.8109 187.098 18.8124C187.095 18.8139 187.093 18.8154 187.09 18.8171C186.244 19.343 185.192 19.7958 183.976 20.1226V21.497C186.301 20.9158 188.005 19.8793 189.045 18.6667C189.173 18.5211 189.289 18.3707 189.398 18.2178L189.398 23.1335C189.381 23.2282 189.375 23.3282 189.385 23.4282C189.393 23.5024 189.398 23.5772 189.398 23.652C189.398 23.7513 189.383 23.8512 189.368 23.9512C189.367 23.9585 189.366 23.9659 189.365 23.9732C189.353 24.0533 189.336 24.1328 189.315 24.2136C189.298 24.2792 189.278 24.3447 189.255 24.4103C189.226 24.4917 189.194 24.5732 189.156 24.6547C189.128 24.7162 189.096 24.7772 189.063 24.8381C189.016 24.9248 188.966 25.0116 188.909 25.0977C188.875 25.1493 188.838 25.2003 188.8 25.2519L188.798 25.254C188.728 25.3487 188.656 25.4427 188.574 25.5361C188.547 25.5677 188.518 25.5986 188.489 25.6296C188.481 25.6381 188.473 25.6467 188.465 25.6553C188.369 25.7586 188.269 25.8612 188.158 25.9619C188.138 25.9807 188.117 25.9989 188.096 26.0172C188.087 26.0252 188.077 26.0333 188.068 26.0414C187.941 26.1526 187.809 26.2632 187.666 26.3705C187.651 26.3817 187.636 26.3925 187.621 26.4033C187.617 26.4058 187.614 26.4083 187.61 26.4109C187.451 26.5281 187.284 26.6433 187.106 26.7546C187.103 26.7563 187.101 26.7577 187.098 26.7592C187.095 26.7607 187.093 26.7622 187.09 26.7639C186.244 27.2898 185.192 27.7426 183.976 28.0694V29.4438C186.301 28.8625 188.005 27.8261 189.045 26.6135C189.173 26.4678 189.289 26.3175 189.398 26.1645L189.398 31.7333C189.392 31.7624 189.388 31.7922 189.385 31.8227C189.213 33.4517 187.149 35.1624 183.976 36.0148V37.3587Z" fill="white"/>
<path fill-rule="evenodd" clip-rule="evenodd" d="M192.234 36.5143C195.095 35.7349 197.407 34.2447 198.082 32.261V7.09618C196.648 4.68494 194.549 3.28533 192.234 2.60501V36.5143Z" fill="#FF6112"/>
<path fill-rule="evenodd" clip-rule="evenodd" d="M192.235 37.3587C195.649 36.4771 198.081 34.5763 198.454 32.2504C198.488 32.1557 198.507 32.0465 198.507 31.9299V23.9831V23.652V23.3209V16.0363V15.7052V15.3741V7.75841V7.42729C198.507 7.30677 198.481 7.20015 198.445 7.1028C198.078 4.98595 195.949 2.89484 192.235 1.96637V3.33832C195.565 4.22865 197.657 6.06317 197.657 7.75841C197.657 9.45366 195.565 11.2882 192.235 12.1785V13.5464C192.259 13.5402 192.284 13.534 192.308 13.5278C192.396 13.5053 192.483 13.4827 192.569 13.4589C192.823 13.3887 193.069 13.3139 193.307 13.2331C193.325 13.227 193.344 13.2212 193.363 13.2154C193.383 13.2093 193.402 13.2031 193.422 13.1967C193.691 13.1026 193.948 13 194.197 12.8934C194.244 12.873 194.29 12.852 194.336 12.8311C194.358 12.8214 194.379 12.8116 194.4 12.802C194.588 12.7165 194.769 12.6285 194.944 12.5364C194.967 12.5245 194.99 12.5127 195.012 12.501C195.053 12.4802 195.093 12.4594 195.132 12.4377C195.352 12.3159 195.564 12.1901 195.763 12.0583C195.78 12.0475 195.795 12.0363 195.811 12.025C195.822 12.0169 195.834 12.0087 195.845 12.0007C196.017 11.8841 196.18 11.7649 196.335 11.6417C196.388 11.5994 196.44 11.557 196.491 11.5139C196.63 11.398 196.763 11.2795 196.888 11.1577C196.901 11.1446 196.915 11.1317 196.929 11.1188C196.948 11.1009 196.968 11.083 196.986 11.0649C197.135 10.9146 197.273 10.761 197.401 10.604C197.419 10.5813 197.436 10.5586 197.453 10.5359C197.466 10.5189 197.479 10.5018 197.492 10.4848C197.508 10.4636 197.525 10.4424 197.542 10.4212C197.581 10.3711 197.621 10.321 197.657 10.2703V15.1867C197.639 15.2814 197.633 15.3814 197.643 15.4814C197.652 15.5555 197.657 15.6304 197.657 15.7052C197.657 15.8045 197.642 15.9044 197.626 16.0043C197.625 16.0117 197.624 16.019 197.623 16.0264C197.611 16.1065 197.595 16.186 197.574 16.2668C197.557 16.3323 197.536 16.3979 197.513 16.4635C197.484 16.5449 197.452 16.6264 197.415 16.7078C197.387 16.7694 197.355 16.8303 197.321 16.8913C197.274 16.978 197.224 17.0648 197.167 17.1509C197.133 17.2024 197.096 17.2534 197.058 17.305L197.056 17.3071C196.987 17.4018 196.914 17.4959 196.833 17.5893C196.805 17.6209 196.776 17.6518 196.747 17.6828C196.739 17.6913 196.731 17.6999 196.723 17.7085C196.627 17.8118 196.527 17.9144 196.417 18.0151C196.397 18.0339 196.376 18.0521 196.354 18.0703C196.345 18.0784 196.336 18.0864 196.326 18.0945C196.2 18.2058 196.067 18.3164 195.925 18.4237C195.91 18.4349 195.894 18.4457 195.879 18.4564C195.876 18.459 195.872 18.4615 195.868 18.4641C195.709 18.5813 195.542 18.6965 195.364 18.8078C195.361 18.8094 195.359 18.8109 195.356 18.8124C195.354 18.8139 195.351 18.8154 195.349 18.817C194.503 19.343 193.45 19.7958 192.235 20.1226V21.497C194.559 20.9157 196.263 19.8792 197.303 18.6667C197.432 18.521 197.547 18.3707 197.656 18.2177L197.657 23.1335C197.639 23.2282 197.633 23.3282 197.643 23.4282C197.652 23.5023 197.657 23.5772 197.657 23.652C197.657 23.7513 197.642 23.8512 197.626 23.9511C197.625 23.9585 197.624 23.9658 197.623 23.9732C197.611 24.0533 197.595 24.1328 197.574 24.2136C197.557 24.2791 197.536 24.3447 197.513 24.4102C197.484 24.4917 197.452 24.5732 197.415 24.6546C197.387 24.7162 197.355 24.7771 197.321 24.8381C197.274 24.9248 197.224 25.0116 197.167 25.0976C197.133 25.1493 197.096 25.2002 197.058 25.2518L197.056 25.2539C196.987 25.3486 196.914 25.4427 196.833 25.536C196.805 25.5677 196.776 25.5985 196.747 25.6295C196.739 25.6381 196.731 25.6467 196.723 25.6552C196.627 25.7586 196.527 25.8612 196.417 25.9619C196.397 25.9807 196.376 25.9989 196.354 26.0171C196.345 26.0252 196.336 26.0332 196.326 26.0413C196.2 26.1526 196.067 26.2632 195.925 26.3705C195.91 26.3817 195.894 26.3925 195.879 26.4032C195.876 26.4058 195.872 26.4083 195.868 26.4109C195.709 26.5281 195.542 26.6433 195.364 26.7546C195.361 26.7562 195.359 26.7577 195.356 26.7592C195.354 26.7607 195.351 26.7622 195.349 26.7638C194.503 27.2898 193.45 27.7426 192.235 28.0694V29.4437C194.559 28.8625 196.263 27.826 197.303 26.6135C197.432 26.4678 197.547 26.3175 197.656 26.1645L197.657 31.7332C197.651 31.7624 197.646 31.7922 197.643 31.8226C197.472 33.4517 195.407 35.1624 192.235 36.0148V37.3587Z" fill="white"/>
<defs>
<clipPath id="clip0_673_6">
<rect width="39.5296" height="39.5296" fill="white" transform="translate(136)"/>
</clipPath>
</defs>
</svg>
